<?xml version="1.0" standalone="no"?>
<!DOCTYPE svg PUBLIC "-//W3C//DTD SVG 20010904//EN"
 "http://www.w3.org/TR/2001/REC-SVG-20010904/DTD/svg10.dtd">
<svg version="1.0" xmlns="http://www.w3.org/2000/svg"
 width="575.000000pt" height="575.000000pt" viewBox="0 0 575.000000 575.000000"
 preserveAspectRatio="xMidYMid meet">
<metadata>
Created by potrace 1.14, written by Peter Selinger 2001-2017
</metadata>
<g transform="translate(0.000000,575.000000) scale(0.100000,-0.100000)"
fill="#000000" stroke="none">
<path d="M2669 5746 c-2 -2 -40 -6 -83 -10 -44 -4 -82 -8 -85 -10 -3 -2 -29
-6 -58 -10 -29 -3 -92 -15 -140 -27 -48 -11 -96 -22 -107 -24 -68 -15 -233
-70 -367 -123 -630 -252 -1144 -703 -1467 -1289 -43 -79 -78 -152 -148 -308
-57 -127 -153 -477 -169 -614 -3 -30 -7 -57 -9 -60 -26 -45 -27 -691 -1 -791
2 -8 6 -37 10 -65 18 -146 95 -424 170 -610 268 -664 746 -1180 1395 -1505
226 -114 490 -206 695 -244 47 -9 156 -27 195 -32 19 -2 51 -7 70 -10 19 -3
145 -7 280 -8 189 -2 276 1 380 14 799 104 1500 529 1971 1196 281 396 449
850 512 1379 26 221 16 561 -23 751 -6 28 -13 64 -16 80 -3 16 -18 81 -34 146
-130 516 -394 976 -766 1339 -132 128 -167 158 -311 266 -248 186 -508 323
-803 424 -74 26 -173 54 -220 64 -8 2 -44 10 -80 18 -36 9 -85 18 -110 22 -24
4 -47 8 -50 10 -3 1 -36 6 -73 10 -37 3 -78 9 -90 12 -24 5 -462 14 -468 9z
m94 -221 c13 -13 16 -56 17 -285 1 -310 10 -283 -106 -294 -66 -6 -133 -16
-209 -31 -67 -14 -216 -59 -320 -98 -448 -166 -824 -486 -1082 -921 -161 -271
-243 -523 -269 -831 -3 -38 -9 -74 -13 -78 -10 -10 -542 -13 -558 -4 -18 12
-6 184 28 372 64 358 204 697 418 1014 25 37 54 78 65 93 12 14 32 41 46 59
103 138 311 341 475 465 344 261 733 441 1102 510 48 9 96 18 105 19 9 2 48 7
85 10 37 4 69 8 71 10 1 1 31 3 66 4 46 1 68 -3 79 -14z m447 0 c437 -57 896
-251 1275 -540 213 -162 425 -384 577 -603 163 -236 304 -545 378 -827 31
-116 31 -120 54 -255 14 -82 18 -110 32 -233 10 -96 20 -92 -282 -90 -197 1
-260 5 -270 15 -12 12 -16 36 -29 154 -3 28 -8 61 -11 75 -2 13 -9 47 -14 74
-39 196 -145 458 -268 658 -153 250 -373 478 -624 646 -183 122 -489 259 -678
302 -25 6 -54 13 -65 15 -11 3 -29 6 -40 8 -11 2 -33 6 -50 9 -16 3 -52 9 -80
12 -103 11 -125 17 -135 36 -14 25 -12 517 2 543 9 17 18 18 102 12 50 -4 107
-9 126 -11z m-443 -787 c9 -7 12 -93 11 -334 0 -286 -2 -327 -17 -343 -40 -45
-267 -59 -461 -27 -14 3 -45 7 -70 10 -116 15 -198 28 -208 35 -14 9 6 89 47
189 109 265 338 447 599 478 26 3 48 7 50 9 5 5 34 -6 49 -17z m236 -71 c10
-24 35 -55 58 -72 86 -65 89 -73 63 -146 -18 -53 -20 -108 -5 -137 19 -36 69
-64 113 -64 51 1 81 22 126 88 78 115 102 134 166 134 45 0 85 -40 131 -130
36 -71 85 -209 85 -239 0 -24 -10 -27 -112 -41 -105 -15 -111 -16 -178 -24
-30 -4 -68 -10 -85 -14 -54 -11 -229 -7 -293 7 -109 24 -103 2 -101 331 1 313
2 350 9 350 3 0 13 -19 23 -43z m-1052 -218 c-43 -69 -86 -173 -102 -250 -15
-68 -26 -74 -96 -54 -125 35 -183 57 -183 70 0 15 104 109 192 173 89 65 222
143 226 133 2 -5 -15 -37 -37 -72z m1959 -5 c88 -57 264 -205 268 -225 2 -12
-17 -23 -80 -42 -100 -31 -169 -49 -172 -45 -1 2 -17 50 -36 106 -33 105 -68
185 -102 234 -10 14 -18 34 -18 43 0 19 14 12 140 -71z m-2377 -439 c131 -44
334 -96 515 -130 82 -16 142 -32 142 -39 0 -6 -17 -22 -37 -36 -118 -80 -280
-282 -340 -425 -54 -127 -75 -201 -88 -310 -8 -62 -20 -85 -48 -86 -164 -5
-470 0 -478 8 -18 18 -12 111 10 157 27 55 57 76 166 116 100 37 135 57 183
109 68 75 99 236 56 294 -37 49 -70 61 -187 64 -147 4 -190 29 -172 100 6 27
95 163 126 194 25 25 35 25 152 -16z m2827 25 c27 -15 153 -206 209 -319 92
-184 154 -383 185 -598 16 -109 15 -129 -12 -135 -38 -8 -673 -1 -682 8 -5 5
-16 45 -25 89 -59 288 -203 533 -415 705 -30 25 -58 49 -62 55 -8 11 13 21 65
29 20 3 58 11 84 17 27 6 62 13 78 16 113 18 508 122 524 139 7 7 32 4 51 -6z
m-1260 -350 c281 -80 488 -286 562 -558 31 -117 33 -305 3 -420 -28 -111 -58
-181 -111 -263 -138 -211 -391 -354 -641 -363 -307 -11 -602 154 -746 416 -26
46 -90 218 -82 218 2 0 -1 15 -6 33 -18 56 -20 235 -3 312 14 69 36 139 56
182 16 33 13 75 -7 85 -9 6 -31 23 -49 38 -27 25 -31 35 -31 80 0 47 3 55 37
86 30 27 46 34 77 34 51 0 85 -16 101 -46 21 -39 38 -36 103 16 86 70 201 127
310 155 120 31 310 29 427 -5z m-1418 -899 c21 -1 34 -24 42 -76 13 -91 19
-113 42 -185 72 -218 227 -436 407 -573 56 -43 57 -42 -73 -63 -19 -3 -69 -12
-110 -20 -41 -8 -86 -17 -100 -20 -14 -3 -33 -7 -42 -10 -10 -3 -29 -7 -42
-10 -38 -7 -253 -70 -331 -98 -47 -16 -75 -21 -86 -15 -26 14 -115 159 -131
214 -32 108 4 188 139 312 107 99 124 125 126 194 3 95 -80 169 -230 204 -40
10 -88 28 -106 41 -18 13 -58 42 -91 64 l-59 40 274 2 c243 3 307 2 371 -1z
m3066 -6 c21 -5 23 -10 18 -53 -11 -94 -17 -137 -21 -152 -2 -8 -7 -31 -10
-50 -10 -63 -45 -193 -71 -265 -14 -38 -28 -79 -32 -90 -21 -77 -190 -369
-251 -434 -32 -34 -4 -38 -226 34 -107 35 -354 98 -425 109 -19 3 -44 7 -55
10 -11 2 -44 7 -72 11 -62 8 -66 21 -20 55 218 161 364 393 433 690 33 139 32
138 51 142 27 5 656 -2 681 -7z m-3972 -12 c6 -10 12 -43 13 -73 2 -30 4 -57
6 -60 2 -3 6 -30 10 -60 11 -102 62 -295 107 -410 38 -97 124 -275 162 -333
20 -32 36 -60 36 -62 0 -3 17 -30 39 -60 203 -293 461 -526 762 -689 173 -93
438 -179 654 -210 22 -4 54 -9 70 -12 28 -5 78 -12 100 -13 37 -4 38 -13 42
-294 4 -317 12 -294 -100 -282 -539 55 -1004 234 -1416 543 -105 79 -322 283
-418 394 -161 185 -325 452 -426 690 -33 77 -102 271 -112 317 -3 9 -13 50
-24 91 -11 41 -22 89 -25 105 -3 17 -8 41 -11 55 -3 14 -8 45 -11 70 -3 25 -7
56 -9 70 -14 76 -16 211 -5 225 10 13 56 15 279 15 243 0 267 -2 277 -17z
m4749 -3 c6 -19 0 -124 -10 -180 -2 -14 -7 -47 -10 -75 -23 -192 -117 -526
-202 -714 -150 -335 -292 -541 -548 -796 -138 -138 -147 -147 -268 -243 -225
-179 -526 -338 -807 -429 -148 -47 -366 -94 -505 -108 -190 -19 -184 -19 -194
7 -15 39 -9 522 7 540 7 9 34 19 60 23 26 3 63 9 82 12 357 51 701 193 982
404 93 70 312 285 404 399 133 163 242 360 323 582 49 136 104 379 114 504 8
100 -11 94 297 94 259 0 269 -1 275 -20z m-2798 -1029 c12 -1 29 -8 38 -17 14
-15 16 -41 13 -209 -1 -105 -6 -203 -9 -216 -4 -13 -7 -17 -8 -8 -2 23 -49 64
-116 97 -33 17 -82 51 -110 76 -88 80 -153 97 -246 66 -64 -22 -106 -64 -114
-117 -14 -82 -18 -84 -61 -18 -35 56 -84 179 -99 252 -7 35 -3 37 70 48 23 3
50 7 60 9 11 2 49 7 85 11 36 4 74 9 84 11 10 2 73 6 140 10 67 3 122 7 123 8
1 1 80 -1 150 -3z m630 -5 c68 -4 132 -9 144 -11 12 -2 46 -7 76 -11 84 -9
145 -27 156 -45 20 -32 -67 -253 -143 -364 -67 -97 -183 -196 -293 -250 -68
-33 -223 -72 -282 -71 l-40 1 -2 350 c-2 193 -1 360 2 372 3 12 17 25 32 30
29 10 153 9 350 -1z m766 -161 c37 -15 67 -30 67 -35 0 -9 -75 -78 -166 -152
-66 -53 -239 -168 -254 -168 -4 0 12 39 37 88 24 48 57 132 74 187 17 55 34
110 39 122 l9 22 63 -18 c35 -10 93 -31 131 -46z m-2268 -45 c32 -96 101 -242
137 -292 11 -16 14 -28 8 -28 -35 0 -285 174 -408 285 -48 43 -52 49 -35 59
30 17 227 76 246 73 14 -1 27 -26 52 -97z"/>
<path d="M2437 5232 c-20 -22 -22 -51 -5 -87 11 -24 24 -30 58 -25 46 6 62 69
26 105 -30 30 -57 32 -79 7z"/>
<path d="M2130 5170 c-54 -54 15 -165 81 -130 31 17 39 50 23 90 -25 61 -67
77 -104 40z"/>
<path d="M1843 5069 c-21 -8 -41 -34 -41 -54 0 -21 39 -85 58 -95 25 -13 68
-3 79 19 20 39 -11 115 -54 131 -11 4 -30 4 -42 -1z"/>
<path d="M1552 4908 c-44 -22 -38 -72 15 -130 18 -19 32 -25 52 -22 31 6 61
37 56 62 -2 9 -4 22 -4 27 -2 18 -62 75 -79 74 -9 0 -27 -5 -40 -11z"/>
<path d="M1270 4710 c-57 -57 20 -157 105 -136 49 12 41 94 -13 136 -32 26
-67 25 -92 0z"/>
<path d="M1033 4520 c-12 -5 -29 -20 -37 -33 -27 -40 -11 -79 58 -144 102 -96
126 -113 156 -113 34 0 77 35 85 70 6 27 -33 74 -152 183 -52 47 -70 53 -110
37z"/>
<path d="M882 4245 c-26 -33 -19 -54 28 -87 45 -33 70 -35 94 -9 25 28 17 50
-32 88 -52 40 -65 41 -90 8z"/>
<path d="M760 4013 c-54 -20 -64 -66 -22 -105 35 -33 57 -40 86 -28 56 21 58
87 3 120 -33 21 -42 22 -67 13z"/>
<path d="M633 3730 c-57 -23 -49 -120 12 -131 65 -13 109 16 103 66 -5 45 -71
82 -115 65z"/>
<path d="M560 3432 c-59 -9 -80 -70 -37 -110 58 -54 162 2 127 68 -14 26 -59
47 -90 42z"/>
<path d="M520 3142 c-40 -14 -52 -68 -22 -95 28 -26 69 -21 89 9 15 23 15 29
2 52 -15 27 -45 42 -69 34z"/>
<path d="M3237 5232 c-24 -26 -21 -67 5 -92 28 -26 55 -22 81 11 44 59 -37
135 -86 81z"/>
<path d="M3531 5166 c-39 -43 -34 -103 9 -126 56 -30 109 32 89 104 -5 20 -13
37 -17 38 -36 8 -64 2 -81 -16z"/>
<path d="M3834 5049 c-13 -15 -19 -36 -19 -69 0 -56 4 -62 42 -62 36 0 83 52
83 92 0 54 -69 79 -106 39z"/>
<path d="M4132 4906 c-29 -16 -62 -65 -62 -91 1 -48 55 -77 96 -50 27 17 64
71 64 93 0 17 -45 62 -62 62 -7 -1 -23 -6 -36 -14z"/>
<path d="M4413 4723 c-36 -7 -83 -60 -83 -93 0 -36 43 -73 74 -64 45 13 98 83
88 114 -4 15 -43 51 -52 48 -3 0 -15 -3 -27 -5z"/>
<path d="M4657 4522 c-28 -12 -177 -153 -193 -184 -29 -57 29 -126 92 -109 30
8 194 159 205 189 12 31 -13 85 -47 101 -28 12 -32 13 -57 3z"/>
<path d="M4785 4241 c-34 -14 -57 -47 -53 -77 5 -40 37 -48 89 -21 51 28 64
46 55 80 -5 23 -12 27 -39 26 -17 0 -41 -4 -52 -8z"/>
<path d="M4940 4013 c-51 -18 -78 -74 -54 -111 14 -22 21 -24 62 -19 51 6 82
33 82 73 0 40 -50 71 -90 57z"/>
<path d="M5035 3718 c-43 -25 -52 -72 -20 -104 44 -44 135 -7 135 55 0 52 -63
79 -115 49z"/>
<path d="M5106 3406 c-50 -46 -23 -106 48 -106 46 0 88 37 82 72 -3 13 -5 26
-5 29 -2 10 -51 29 -76 29 -13 0 -35 -11 -49 -24z"/>
<path d="M5155 3116 c-12 -18 -13 -30 -6 -49 21 -54 111 -42 111 13 0 56 -75
82 -105 36z"/>
<path d="M2745 3594 c-174 -37 -312 -119 -418 -249 -84 -104 -150 -271 -133
-338 3 -13 18 -29 33 -36 42 -19 70 9 103 102 46 131 126 233 245 309 54 35
113 58 233 88 48 12 69 42 58 85 -9 37 -56 52 -121 39z"/>
<path d="M3205 3326 c-16 -7 -94 -79 -173 -160 -79 -80 -151 -146 -160 -147
-78 -3 -115 -42 -136 -139 -3 -16 -72 -93 -175 -196 -138 -139 -171 -177 -176
-206 -8 -41 5 -71 39 -93 44 -29 72 -11 257 171 121 120 183 174 198 174 26 0
80 26 102 50 21 21 35 60 38 101 1 13 59 80 152 172 83 83 155 162 160 174 24
65 -58 130 -126 99z"/>
<path d="M502 2698 c-17 -17 -15 -64 4 -82 46 -46 115 16 84 75 -12 22 -68 27
-88 7z"/>
<path d="M586 2425 c4 -8 10 -15 15 -15 17 0 9 -47 -11 -65 -23 -21 -18 -35 9
-28 48 12 72 72 41 103 -24 24 -62 27 -54 5z"/>
<path d="M641 2129 c-51 -20 -58 -62 -17 -107 41 -45 126 -9 126 53 0 18 -7
38 -15 45 -20 17 -64 21 -94 9z"/>
<path d="M773 1845 c-46 -19 -64 -50 -51 -87 18 -52 87 -55 128 -6 47 57 -7
122 -77 93z"/>
<path d="M915 1594 c-55 -37 -65 -53 -52 -81 21 -46 69 -41 127 13 34 33 35
35 20 61 -21 37 -48 39 -95 7z"/>
<path d="M1151 1506 c-18 -13 -63 -56 -102 -96 -81 -84 -89 -117 -41 -163 45
-44 73 -30 210 99 84 80 91 107 43 155 -36 35 -67 37 -110 5z"/>
<path d="M1293 1165 c-13 -9 -28 -33 -34 -55 -10 -33 -9 -43 5 -65 29 -45 102
-28 135 32 36 69 -41 133 -106 88z"/>
<path d="M1572 974 c-26 -18 -52 -65 -52 -93 0 -27 41 -53 77 -49 31 3 73 57
73 94 0 28 -33 64 -58 64 -10 0 -28 -7 -40 -16z"/>
<path d="M1851 813 c-30 -26 -51 -83 -40 -111 5 -12 20 -27 33 -33 33 -16 70
8 91 57 21 50 19 70 -7 88 -29 21 -51 20 -77 -1z"/>
<path d="M2160 702 c-43 -13 -69 -114 -37 -140 53 -44 117 -6 117 71 0 38 -4
46 -27 57 -36 18 -36 18 -53 12z"/>
<path d="M2444 602 c-12 -9 -24 -27 -27 -39 -7 -32 27 -73 63 -73 31 0 45 13
55 52 5 21 1 33 -19 52 -29 30 -43 32 -72 8z"/>
<path d="M5154 2685 c-14 -22 -14 -27 2 -55 30 -49 97 -33 97 24 0 35 -15 49
-53 52 -23 2 -35 -4 -46 -21z"/>
<path d="M5099 2430 c-29 -24 -33 -62 -9 -88 11 -12 26 -23 33 -23 7 -1 24 -3
38 -4 30 -4 39 1 62 34 15 23 15 26 -1 53 -25 43 -89 58 -123 28z"/>
<path d="M5012 2120 c-41 -39 -23 -93 37 -111 46 -14 77 -1 91 37 11 28 -4 69
-29 80 -39 16 -78 14 -99 -6z"/>
<path d="M4902 1842 c-26 -24 -33 -49 -21 -76 20 -44 93 -61 121 -28 31 34 31
60 2 87 -15 14 -32 25 -38 26 -6 0 -19 2 -28 4 -9 2 -26 -4 -36 -13z"/>
<path d="M4760 1612 c-20 -7 -30 -22 -30 -49 0 -25 76 -83 109 -83 29 0 56 43
42 68 -18 34 -92 74 -121 64z"/>
<path d="M4503 1518 c-26 -13 -52 -63 -46 -88 5 -19 145 -152 193 -183 36 -23
84 -7 106 35 14 27 14 32 -10 71 -27 46 -66 86 -139 141 -51 38 -68 42 -104
24z"/>
<path d="M4352 1157 c-24 -26 -27 -48 -12 -78 16 -28 66 -51 102 -45 49 8 61
42 33 96 -28 54 -86 66 -123 27z"/>
<path d="M4112 989 c-35 -13 -47 -50 -28 -85 24 -45 41 -62 68 -73 21 -8 30
-5 51 15 31 28 33 44 13 82 -26 51 -66 75 -104 61z"/>
<path d="M3832 823 c-28 -11 -33 -53 -13 -99 25 -56 59 -74 96 -50 65 43 -10
179 -83 149z"/>
<path d="M3534 688 c-23 -19 -26 -26 -21 -67 8 -71 59 -102 107 -63 41 33 21
123 -30 141 -24 8 -34 6 -56 -11z"/>
<path d="M3240 602 c-31 -25 -30 -70 3 -98 30 -26 60 -22 82 9 21 31 19 54
-10 82 -29 30 -45 31 -75 7z"/>
</g>
</svg>
